<svg width="22" height="22" viewBox="0 0 22 22" fill="none" xmlns="http://www.w3.org/2000/svg">
<path d="M20.1667 7.58075V3.87742C20.1667 2.41992 19.58 1.83325 18.1225 1.83325H14.4192C12.9617 1.83325 12.375 2.41992 12.375 3.87742V7.58075C12.375 9.03825 12.9617 9.62492 14.4192 9.62492H18.1225C19.58 9.62492 20.1667 9.03825 20.1667 7.58075Z" stroke="#718096" stroke-width="1.5" stroke-linecap="round" stroke-linejoin="round"/>
<path d="M9.62467 7.80992V3.64825C9.62467 2.35575 9.03801 1.83325 7.58051 1.83325H3.87717C2.41967 1.83325 1.83301 2.35575 1.83301 3.64825V7.80075C1.83301 9.10242 2.41967 9.61575 3.87717 9.61575H7.58051C9.03801 9.62492 9.62467 9.10242 9.62467 7.80992Z" stroke="#718096" stroke-width="1.5" stroke-linecap="round" stroke-linejoin="round"/>
<path d="M9.62467 18.1225V14.4192C9.62467 12.9617 9.03801 12.375 7.58051 12.375H3.87717C2.41967 12.375 1.83301 12.9617 1.83301 14.4192V18.1225C1.83301 19.58 2.41967 20.1667 3.87717 20.1667H7.58051C9.03801 20.1667 9.62467 19.58 9.62467 18.1225Z" stroke="#718096" stroke-width="1.5" stroke-linecap="round" stroke-linejoin="round"/>
<path d="M13.292 16.0417H18.792" stroke="#718096" stroke-width="1.5" stroke-linecap="round"/>
<path d="M16.042 18.7917V13.2917" stroke="#718096" stroke-width="1.5" stroke-linecap="round"/>
</svg>
